<?xml version="1.0" encoding="UTF-8" standalone="no"?>
<!-- Created with Inkscape (http://www.inkscape.org/) -->

<svg
   version="1.1"
   id="svg1"
   width="901.33331"
   height="840"
   viewBox="0 0 901.33331 840"
   xmlns="http://www.w3.org/2000/svg"
   xmlns:svg="http://www.w3.org/2000/svg">
  <defs
     id="defs1" />
  <g
     id="g1">
    <rect
       style="fill:#0078d4;fill-opacity:1"
       id="rect1"
       width="106.90909"
       height="98.763634"
       x="256.58182"
       y="148.65454" />
    <rect
       style="fill:#0078d4;fill-opacity:1"
       id="rect1-3"
       width="106.90909"
       height="98.763634"
       x="506"
       y="146.72728" />
    <path
       style="fill:#ffffff"
       d="m 683.81666,838.6484 c -37.04857,-5.8244 -84.92617,-27.18565 -110.16778,-49.15285 -12.68755,-11.04169 -14.64979,-17.41167 -6.22051,-20.19359 5.1375,-1.69552 4.45977,-1.99786 28.57162,12.74587 26.75177,16.35798 73.33245,35.18851 95.53208,38.61944 5.45893,0.84368 5.55388,0.78896 7.17978,-4.13756 1.58563,-4.80449 1.21756,-18.10319 -0.82933,-29.96434 -0.95368,-5.52636 1.73764,-9.23204 6.70494,-9.23204 1.68502,0 8.96963,3.02509 16.18804,6.72242 12.17013,6.23365 13.19315,6.5365 14.07034,4.16524 1.4193,-3.83674 -1.10011,-20.90408 -4.08029,-27.64128 -3.07539,-6.95244 -3.80428,-7.29531 -25.00221,-11.76099 -29.63774,-6.24365 -53.12638,-9.17116 -86.43002,-10.77222 -8.8,-0.42305 -20.27384,-1.10064 -25.49742,-1.50574 l -9.49741,-0.73656 -2.94605,4.7668 c -1.62032,2.62175 -4.36462,5.12285 -6.09844,5.55801 -4.69084,1.17733 -11.74928,-1.65415 -18.04003,-7.23669 l -5.58767,-4.95863 -4.36649,4.36649 c -6.53076,6.53076 -14.46915,5.84171 -23.48503,-2.0385 l -4.48146,-3.91696 -42.92781,-0.96764 -42.92781,-0.96764 -4.21031,4.79528 c -5.7482,6.54684 -11.67668,6.58269 -21.2674,0.12861 -3.81405,-2.56666 -7.51308,-4.66666 -8.22006,-4.66666 -0.70699,0 -2.78286,1.77959 -4.61306,3.95466 -4.80517,5.71062 -10.95691,6.52063 -18.13884,2.38837 l -5.69471,-3.27655 -53.33333,0.42039 C 242.12763,734.75158 227.21616,733.18334 168,718.37806 c -32.29237,-8.07377 -32.86528,-8.16462 -50,-7.92928 -25.410691,0.34902 -46.526837,3.38373 -76.248171,10.95803 -32.515013,8.28625 -40.4184957,8.7608 -40.4184957,2.42685 0,-4.83297 2.6561725,-7.78998 10.5991437,-11.79957 24.593875,-12.41495 89.845643,-24.61524 119.328353,-22.31113 5.17321,0.4043 24.53128,4.64902 43.01793,9.43272 48.6258,12.58266 55.64189,13.8081 93.05457,16.25306 34.41537,2.24908 91.33333,4.09638 91.33333,2.96427 0,-0.35296 -0.64608,-2.49508 -1.43572,-4.76026 -0.78965,-2.26518 -1.83965,-8.13602 -2.33334,-13.0463 l -0.89761,-8.92779 -27.33333,0.22961 c -32.21797,0.27064 -73.79204,-1.8005 -93.02452,-4.63431 -7.53016,-1.10954 -24.53042,-4.69623 -37.77835,-7.97044 -13.24794,-3.27421 -28.6869,-6.89211 -34.30881,-8.0398 -5.62191,-1.14768 -12.02165,-3.02828 -14.22165,-4.17912 -2.56007,-1.33919 -9.75974,-2.44372 -20,-3.06829 -16.59941,-1.01242 -35.834608,-4.55983 -55.333332,-10.20473 -21.033196,-6.08913 -26.224843,-9.78973 -22.775701,-16.23451 2.519823,-4.70833 7.216511,-4.45683 31.082798,1.66446 27.814385,7.1339 59.810665,10.90064 53.501915,6.29847 -0.62829,-0.45833 -4.13147,-4.43333 -7.78485,-8.83333 -3.65337,-4.4 -16.60886,-18.2 -28.789967,-30.66667 -12.181109,-12.46667 -22.496721,-23.64779 -22.923581,-24.84693 -1.011647,-2.84194 2.512651,-7.81974 5.536399,-7.81974 7.915803,0 54.848099,42.58541 76.717509,69.61191 4.43532,5.48122 7.55099,8.00459 11.13079,9.01478 2.73424,0.77158 17.87135,4.64336 33.63802,8.60396 39.27038,9.86474 67.50832,13.24583 124.71204,14.93248 l 30.71204,0.90554 7.28796,-7.28717 c 23.52193,-23.51941 67.8739,-26.42071 93.66142,-6.12691 2.77208,2.18152 5.93748,5.70168 7.03424,7.82257 l 1.99411,3.85618 h 24.00649 24.0065 l 4.16608,-4.74491 c 9.86688,-11.23775 27.20164,-18.77186 46.31209,-20.12836 26.83257,-1.90463 48.46942,6.96634 59.66017,24.46028 4.39982,6.87803 4.70448,7.07965 10.69794,7.07965 26.88331,0 123.78649,10.87753 166.41557,18.68039 35.23663,6.44975 87.69065,20.14442 95,24.80256 5.56183,3.54448 2.4948,13.85039 -4.12187,13.85039 -1.23487,0 -6.58762,-1.21232 -11.89501,-2.69403 -8.12207,-2.26752 -41.42156,-9.94233 -63.64979,-14.66989 -33.98587,-7.22821 -99.40483,-15.56686 -161.33332,-20.56441 -34.47704,-2.78225 -51.26655,-3.0069 -54.01874,-0.72279 -2.29797,1.90714 -9.98126,16.23498 -9.98126,18.61309 0,0.83328 4.49899,1.37136 11.46615,1.37136 18.55161,0 55.67481,2.59761 77.20051,5.40193 34.86097,4.5416 111.8412,23.25301 169.90479,41.29835 18.50264,5.75037 24.33313,11.71782 17.49512,17.90613 -3.96682,3.58993 -3.30598,3.7181 -84.39991,-16.36961 -33.12554,-8.2055 -33.10939,-8.20505 -30.31084,-0.84431 0.7457,1.96135 1.42374,8.54976 1.50675,14.64092 0.22132,16.2397 -5.29958,26.05356 -14.59198,25.93847 -1.52387,-0.0189 -20.93726,-6.16886 -20.93726,-6.63274 0,-0.003 0,5.54419 0,12.32753 0,20.05247 -3.76613,25.0951 -19.25235,25.77779 -4.81121,0.2121 -12.13015,-0.14613 -16.26431,-0.79606 z M 573.27258,709.18078 c 7.00405,-19.90435 14.01337,-29.288 24.39407,-32.65733 5.55367,-1.80259 4.99429,-3.5263 -2.33333,-7.19012 -5.97415,-2.98707 -8.25945,-3.32863 -22,-3.28805 -13.59427,0.0401 -16.16506,0.43219 -22.66667,3.45674 -15.0784,7.01448 -22.64061,17.64648 -22.64061,31.83131 0,8.23787 5.40819,21.94467 8.29874,21.03276 0.92136,-0.29067 3.87382,-7.07481 6.56101,-15.07587 5.26875,-15.6876 8.69301,-20.32303 13.22227,-17.89905 2.87497,1.53864 3.28088,2.95932 5.30084,18.5529 1.53628,11.85966 3.17116,16.52924 5.51372,15.74839 0.77481,-0.25828 3.6323,-6.78853 6.34996,-14.51168 z m -184.54453,3.15255 c 5.63832,-20.23844 8.25973,-25.68321 12.34755,-25.64625 4.41417,0.0399 5.66628,2.31146 7.70157,13.97185 2.0789,11.9103 4.86704,19.34107 7.25706,19.34107 0.7145,0 1.30281,-0.15 1.30735,-0.33333 0.005,-0.18334 2.28014,-6.96835 5.05689,-15.07781 5.80595,-16.95621 10.7129,-26.02582 16.32609,-30.17583 2.16815,-1.60298 3.9421,-3.37844 3.9421,-3.94545 0,-2.2968 -14.37141,-5.13425 -26.00449,-5.13425 -15.66632,0 -23.12227,2.49887 -31.4173,10.52954 -11.20438,10.84729 -13.22635,26.55617 -5.10878,39.69067 3.98251,6.44383 6.12313,5.64154 8.59196,-3.22021 z M 508.39374,711 c -0.58323,-2.75 -0.97705,-8.45 -0.87516,-12.66667 l 0.18525,-7.66666 h -27.03754 c -31.73797,0 -30.65946,-0.42535 -36.69429,14.47148 -2.1846,5.39265 -3.97201,10.04265 -3.97201,10.33333 0,0.29069 15.62719,0.52852 34.72708,0.52852 h 34.72709 z m 250.58685,-21.71539 c -5.58011,-2.24178 -6.09998,-7.00355 -2.45928,-22.5257 6.60644,-28.16662 9.11968,-60.11557 8.99325,-114.32444 -0.1729,-74.12886 -6.17923,-127.05826 -19.37493,-170.737 -7.21374,-23.87801 -18.6517,-48.67412 -29.38043,-63.69321 -5.31966,-7.44697 -5.92263,-11.20475 -2.3209,-14.46428 5.42918,-4.91333 12.29145,-1.73843 19.40435,8.97761 21.66229,32.63561 41.60694,96.26424 49.36351,157.48241 9.12583,72.02504 7.09206,159.87436 -4.71522,203.67562 -3.45915,12.83234 -6.49553,17.02142 -12.2544,16.90653 -2.33011,-0.0465 -5.59528,-0.63038 -7.25595,-1.29754 z m -423.752,-26.90001 c -3.60906,-2.35514 -12.57067,-10.30514 -19.91468,-17.66667 -54.6486,-54.77894 -86.65119,-124.98321 -93.92838,-206.05126 -3.28807,-36.62908 0.93264,-82.08629 8.75885,-94.33334 1.98223,-3.10194 7.51656,-4.01901 10.98582,-1.82042 2.25352,1.42814 2.26123,2.50071 0.21903,30.48709 -2.76191,37.84936 0.99335,78.0041 10.63466,113.71571 15.72155,58.2329 43.30419,105.87317 86.31134,149.07543 20.53457,20.62774 21.89894,23.0983 15.52495,28.11209 -5.04325,3.96702 -10.92102,3.4869 -18.59159,-1.51863 z m 375.97755,-5.09097 c -2.98488,-1.4768 -10.56443,-7.32201 -16.84344,-12.98936 -48.73346,-43.98616 -83.60737,-114.25975 -95.2308,-191.89735 -2.99232,-19.98693 -3.01739,-65.36888 -0.0436,-78.87607 3.41369,-15.50514 9.17379,-22.55803 14.96481,-18.32352 2.09442,1.53147 2.33816,5.40658 2.57307,40.90886 0.27921,42.1961 1.04455,48.79593 9.57286,82.55048 14.31471,56.65678 46.83622,115.52925 85.40047,154.59726 8.28691,8.39516 15.06711,16.27869 15.06711,17.51896 0,2.93033 -3.93654,7.44203 -7.35006,8.42395 -1.47954,0.42559 -5.11814,-0.43273 -8.11045,-1.91321 z M 228.71487,325 c -4.43661,-3.8761 -7.4078,-17.72266 -7.50121,-34.95766 -0.13046,-24.07292 2.22491,-31.37567 10.11967,-31.37567 7.39103,0 8.8641,3.64976 10.11276,25.05589 0.58638,10.05259 1.4513,23.18597 1.92204,29.18527 l 0.85589,10.90784 -4.0458,2.09216 c -5.41548,2.80046 -7.39857,2.64341 -11.46335,-0.90783 z m 207.01085,-15.06502 c -6.8643,-3.72603 -20.79879,-26.34356 -26.57684,-43.13773 -4.2654,-12.39762 -3.75419,-14.12578 7.42053,-25.08525 10.10586,-9.91119 14.56341,-11.87804 16.08126,-7.0957 0.98083,3.0903 -0.77799,6.72893 -6.85797,14.18769 -2.45266,3.00886 -4.45938,6.1385 -4.45938,6.95476 0,3.56255 15.58656,32.24125 17.52277,32.24125 0.48643,0 4.34742,-5.85 8.57997,-13 13.02066,-21.99568 14.86511,-24.33333 19.19941,-24.33333 4.48626,0 8.03119,3.04834 8.03119,6.90615 0,1.49363 -3.78678,9.40077 -8.41507,17.57143 -4.62828,8.17066 -9.87828,17.78569 -11.66666,21.36672 -3.73919,7.4873 -10.71185,15.51379 -13.40904,15.43565 -1.01341,-0.0294 -3.46599,-0.9346 -5.45017,-2.01164 z M 706.3338,285.66667 c -1.30149,-1.46037 -2.4166,-6.32404 -2.98054,-13 -1.27714,-15.11861 -4.52425,-43.78187 -6.11739,-54 -2.23545,-14.33782 -8.09383,-39.27997 -9.42032,-40.10712 -0.68249,-0.42558 -2.5702,-0.62558 -4.1949,-0.44445 -1.6247,0.18114 -6.37681,0.37934 -10.56025,0.44046 l -7.60625,0.11111 -0.79441,5 c -5.0669,31.89096 -17.29662,53.57796 -37.5027,66.50363 -15.95349,10.20532 -29.54938,13.81014 -55.82372,14.8011 -37.56729,1.41689 -68.27738,-6.2367 -85.36011,-21.27353 -13.23529,-11.65016 -20.63989,-28.5551 -20.63989,-47.12152 v -7.5639 l -25.31744,0.54455 c -15.66393,0.33692 -25.86784,1.09495 -26.76092,1.98803 -0.79392,0.79392 -2.59685,6.77107 -4.00652,13.28256 -6.8664,31.71696 -25.37865,51.11731 -56.58178,59.29621 -13.6108,3.56764 -44.31157,4.8847 -61.26331,2.62818 -35.77272,-4.76184 -62.08164,-21.01077 -68.80019,-42.49241 -3.23804,-10.35319 -4.76674,-33.93659 -2.9986,-46.25957 1.55415,-10.83155 1.03045,-12.87685 -3.03582,-11.85628 -8.5266,2.14004 -13.99854,-3.77137 -11.23686,-12.13933 0.77656,-2.35299 2.76838,-4.89621 4.42627,-5.65159 17.6283,-8.032 119.70938,-15.80996 166.60699,-12.69445 25.47029,1.69204 30.78802,3.37973 34.68611,11.00832 1.75703,3.43852 2.28338,7.0616 2,13.76687 l -0.38459,9.1002 26,-0.92381 c 14.3,-0.50809 26.09245,-1.00318 26.20544,-1.1002 0.113,-0.097 0.80142,-5.13774 1.52984,-11.2016 2.10848,-17.55266 5.30142,-20.40387 26.59358,-23.74746 27.37758,-4.2992 135.97875,-3.75545 157.15706,0.78685 9.65815,2.07148 13.62405,6.61859 15.5429,17.82078 L 667.20829,160 h 7.65049 c 4.20777,0 7.99055,-0.55022 8.40618,-1.22272 0.41562,-0.6725 -0.1401,-5.0225 -1.23494,-9.66667 -3.87934,-16.45564 -1.98014,-23.87522 5.39707,-21.08464 3.75978,1.42222 6.11617,5.42339 10.58537,17.97403 2.08907,5.86667 5.64089,13.28556 7.89292,16.48643 3.42491,4.86791 4.05271,6.93963 3.83845,12.66667 -0.14574,3.8956 1.4332,13.79334 3.66308,22.96236 5.60883,23.06293 9.1409,47.95752 9.56173,67.39266 0.32461,14.99125 0.0856,17.15183 -2.17531,19.66667 -3.2141,3.57503 -11.46175,3.8556 -14.45953,0.49188 z M 305.59156,225.33333 c -0.22464,-8.43333 -0.72754,-17.00711 -1.11755,-19.05285 l -0.70911,-3.71952 -18.88246,0.82744 c -10.38534,0.4551 -19.63245,1.06005 -20.54911,1.34434 -1.8451,0.57224 -2.28579,14.37808 -0.80404,25.18867 0.67749,4.94278 1.53121,6.5478 3.97757,7.4779 3.36448,1.27917 27.95472,3.73503 34.49313,3.44487 l 4,-0.17751 z m 53.75349,14.15631 c 2.27776,-1.66554 2.49599,-3.54542 2.25848,-19.45476 -0.1446,-9.68608 -0.54917,-18.07423 -0.89903,-18.64032 -0.66564,-1.07702 -34.05177,-0.47323 -41.9065,0.75788 l -4.53533,0.71085 0.86432,18.02199 c 0.47538,9.91209 1.20168,18.56785 1.61402,19.23502 1.28342,2.07661 39.6789,1.50826 42.60404,-0.63066 z m 241.34841,-2.71793 c 2.73488,-1.79196 3.08918,-3.39211 3.95993,-17.88425 1.37049,-22.80972 2.32514,-21.55648 -16.40992,-21.54254 -8.56725,0.006 -18.72682,0.38995 -22.57682,0.85239 l -7,0.8408 v 19.04985 c 0,17.04421 0.24567,19.10777 2.33334,19.60006 1.28333,0.30263 10.06355,0.66307 19.51159,0.80098 13.22892,0.19311 17.86879,-0.2017 20.18188,-1.71729 z m -53.45722,-0.61463 c 0.91175,-1.47524 1.2118,-36.15347 0.32053,-37.04474 -0.36019,-0.3602 -9.70782,-0.22398 -20.77251,0.3027 l -20.1176,0.95759 0.0182,13.48035 c 0.0286,21.17264 -0.62733,20.38566 18.40159,22.0784 16.84982,1.4989 21.33467,1.54459 22.14979,0.2257 z m -249.42234,-43.67165 6.18609,-0.84789 v -13.65211 c 0,-7.50865 -0.39183,-15.61127 -0.87074,-18.00582 l -0.87074,-4.35371 -12.86623,0.84317 c -19.93325,1.3063 -25.24612,2.27084 -25.92996,4.70753 -0.33289,1.1862 -1.01368,8.90673 -1.51286,17.15673 l -0.90759,15 h 15.29297 c 8.41113,0 18.07671,-0.38155 21.47906,-0.8479 z m 52.51943,-2.63891 c 5.96947,-0.45741 9.69735,-1.33464 9.74689,-2.29361 0.47689,-9.231 -0.52307,-29.88901 -1.53865,-31.78664 -1.16866,-2.18366 -3.2871,-2.43294 -20.67614,-2.43294 -11.25596,0 -20.49524,0.60003 -22.04975,1.43198 -2.54195,1.36041 -2.62906,2.27655 -1.74317,18.33333 0.51288,9.29575 1.1456,17.27664 1.40607,17.73533 0.47882,0.84322 17.11388,0.37194 34.85475,-0.98745 z m 197.69932,-2.67918 c 0.85468,-0.85468 1.2388,-8.20236 1.00761,-19.27428 L 548.66665,150 l -4,0.15583 c -17.78714,0.69293 -32.86109,2.35897 -34.91247,3.85866 -2.07022,1.51348 -2.48961,4.22171 -2.89553,18.69816 l -0.47467,16.92835 20.13372,-0.54622 c 11.33788,-0.30759 20.73714,-1.14964 21.51495,-1.92744 z m 36.8721,-0.25216 c 12.74235,-0.19501 16.68916,-0.69958 18.33333,-2.34375 2.95271,-2.95271 3.0742,-32.76578 0.14344,-35.19809 -2.06557,-1.71427 -40.97335,-1.56609 -42.69754,0.16262 -1.17195,1.17502 -2.4535,31.21132 -1.49468,35.03158 0.61626,2.45538 1.60213,2.99806 5.12028,2.81852 2.39639,-0.1223 11.66422,-0.33419 20.59517,-0.47088 z M 237.87661,114.80896 c -12.93479,-7.88754 -28.90318,-37.833639 -35.84874,-67.228468 -3.63785,-15.396018 -4.66986,-34.643891 -2.1136,-39.4203171 4.9665,-9.279993 23.9406,-1.7926406 64.75239,25.5518901 21.30683,14.275907 38,29.057801 38,33.649217 0,1.002842 -1.39717,3.447659 -3.10483,5.432928 -4.30404,5.003748 -7.05687,3.993725 -22.2285,-8.155725 -17.34487,-13.889776 -59.54735,-41.40367 -61.17115,-39.880513 -0.72749,0.682402 2.00963,11.315384 6.66936,25.908695 4.80509,15.048548 13.70369,34.349154 21.90678,47.514695 6.66681,10.699908 7.25254,14.073258 2.965,17.076368 -3.7882,2.65336 -4.81653,2.6064 -9.82671,-0.44877 z m 426.12338,-3.19532 c -4.84768,-2.44379 -4.75957,-6.53259 0.32839,-15.240059 9.48385,-16.230501 20.82943,-48.675476 24.32216,-69.554087 l 0.97816,-5.847173 -4.48102,3.329491 c -2.46457,1.831221 -13.48103,8.605276 -24.48103,15.053457 -11,6.44818 -26.81222,16.773844 -35.13826,22.945919 -8.32605,6.172075 -15.98068,11.545218 -17.0103,11.940318 -3.14851,1.208199 -8.5181,-3.2654 -8.5181,-7.096738 0,-8.945614 42.69178,-40.984708 79.10403,-59.3655494 17.14513,-8.65483662 22.15768,-8.8007412 25.52443,-0.7429619 9.41493,22.5330943 -4.74721,77.1651593 -25.82247,99.6131233 -6.50419,6.92784 -9.1507,7.81518 -14.80599,4.96426 z M 564.50622,67.11682 C 525.99124,54.968504 487.85038,49.264152 445.40035,49.303332 c -15.0702,0.01391 -28.90036,0.275266 -30.73369,0.580794 -1.83334,0.305528 -7.53334,0.941605 -12.66667,1.413506 -22.4861,2.067118 -46.96534,7.730508 -69.64636,16.113022 -10.29339,3.804259 -12.85107,4.305531 -15.59331,3.056081 -7.57129,-3.449708 -5.19855,-10.007667 5.46038,-15.091883 52.38418,-24.986766 144.72639,-29.727546 219.41383,-11.264542 30.31359,7.493628 46.34942,13.543688 48.99367,18.484515 1.89616,3.542997 -0.71113,8.982712 -4.66802,9.739119 -1.68268,0.321665 -11.33696,-2.026041 -21.45396,-5.217124 z"
       id="path1" />
  </g>
</svg>
